<svg width="24" height="24" viewBox="0 0 24 24" fill="none" xmlns="http://www.w3.org/2000/svg">
  <path d="M18 18.5C19.39 18.5 20.5 17.39 20.5 16S19.39 13.5 18 13.5 15.5 14.61 15.5 16 16.61 18.5 18 18.5M19.5 9.5L21 8V6L19.5 4.5L18 6L16.5 4.5L15 6V8L16.5 9.5L18 8L19.5 9.5M6 18.5C7.39 18.5 8.5 17.39 8.5 16S7.39 13.5 6 13.5 3.5 14.61 3.5 16 4.61 18.5 6 18.5M12 6C10.89 6 10 6.89 10 8V10C10 11.11 10.89 12 12 12S14 11.11 14 10V8C14 6.89 13.11 6 12 6M12 14C10.89 14 10 14.89 10 16S10.89 18 12 18 14 17.11 14 16 13.11 14 12 14Z" fill="#10b981"/>
</svg>