<svg width="24" height="24" viewBox="0 0 24 24" fill="none" xmlns="http://www.w3.org/2000/svg">
  <path d="M8.85 2.68C8.85 2.68 11.05 1.26 14.58 4.35C14.58 4.35 12.28 5.47 9.85 3.85C9.85 3.85 8.85 3.18 8.85 2.68M15.27 6.18C15.27 6.18 12.15 7.88 8.85 5.68C8.85 5.68 10.85 6.88 13.85 6.18C13.85 6.18 15.27 6.18 15.27 6.18M7.15 8.48C7.15 8.48 9.85 7.18 13.15 8.48C13.15 8.48 10.85 9.18 7.15 8.48M14.85 10.48C14.85 10.48 11.85 11.48 8.85 10.48C8.85 10.48 11.85 11.88 14.85 10.48M8.15 12.48C8.15 12.48 11.15 11.48 14.15 12.48C14.15 12.48 11.15 13.88 8.15 12.48Z" fill="#ed8b00"/>
</svg>