<svg width="24" height="24" viewBox="0 0 24 24" fill="none" xmlns="http://www.w3.org/2000/svg">
  <path d="M12 2C13.1 2 14 2.9 14 4S13.1 6 12 6 10 5.1 10 4 10.9 2 12 2M6 8C7.1 8 8 8.9 8 10S7.1 12 6 12 4 11.1 4 10 4.9 8 6 8M18 8C19.1 8 20 8.9 20 10S19.1 12 18 12 16 11.1 16 10 16.9 8 18 8M12 14C13.1 14 14 14.9 14 16S13.1 18 12 18 10 17.1 10 16 10.9 14 12 14M6 20C7.1 20 8 20.9 8 22S7.1 24 6 24 4 23.1 4 22 4.9 20 6 20M18 20C19.1 20 20 20.9 20 22S19.1 24 18 24 16 23.1 16 22 16.9 20 18 20Z" fill="#ef4444"/>
</svg>